<?xml version="1.0" encoding="UTF-8"?>
<svg width="500px" height="161px" viewBox="0 0 500 161" version="1.1" xmlns="http://www.w3.org/2000/svg" xmlns:xlink="http://www.w3.org/1999/xlink">
    <!-- Generator: Sketch 54.1 (76490) - https://sketchapp.com -->
    <title>logo-actforworld</title>
    <desc>Created with Sketch.</desc>
    <g id="Page-1" stroke="none" stroke-width="1" fill="none" fill-rule="evenodd">
        <g id="Artboard" fill-rule="nonzero">
            <g id="logo-actforworld" transform="translate(-0.500000, -1.166667)">
                <g id="logo">
                    <path d="M86.24,53.1866667 C84.4933333,54.1333333 74.0533333,59.8533333 76.52,61.9866667 C82.2933333,65.4 101.186667,69.3333333 103.266667,70.6666667 C105.346667,72 108.373333,80.3066667 109.853333,79.84 C111.333333,79.3733333 130.76,65.08 132,63.88 C128.183696,59.2758767 125.743588,53.6885848 124.96,47.76 C123.893333,38.2533333 110.666667,23.5733333 105.44,15.5066667 C100.213333,7.44 96.28,2.73333333 92.9333333,4.84 C89.5866667,6.94666667 97.6266667,16 101.493333,21.3333333 C105.36,26.6666667 104.16,26.6666667 101.813333,26.84 C99.4666667,27.0133333 92.1066667,14.2 86.7733333,5.93333333 C81.44,-2.33333333 76.68,1.93333333 80.1066667,7.66666667 C83.5333333,13.4 88.96,21.6 93.76,26.6666667 C98.56,31.7333333 94.7066667,36 92.72,32 C88.96,25.8266667 75.72,3.58666667 71.24,6.2 C66.76,8.81333333 71.8666667,16.3333333 79.48,25.68 C87.0933333,35.0266667 86.88,38.5066667 85.1733333,38.2266667 C83.4666667,37.9466667 72.96,22.4933333 69.04,17.4533333 C65.12,12.4133333 59.7066667,16.6266667 63.0533333,21.7466667 C66.4,26.8666667 88,52.24 86.24,53.1866667 Z" id="Path" fill="#67BAE3"></path>
                    <path d="M76.2933333,109.333333 C78.04,108.386667 88.48,102.666667 86.0133333,100.533333 C80.24,97.1333333 61.3333333,93.16 59.2666667,92 C57.2,90.84 54.16,82.36 52.68,82.8266667 C51.2,83.2933333 31.7733333,97.4533333 30.52,98.6666667 C34.3363041,103.27079 36.7764118,108.858082 37.56,114.786667 C38.64,124.293333 51.8933333,138.973333 57.0933333,147.04 C62.2933333,155.106667 66.2533333,159.813333 69.6,157.706667 C72.9466667,155.6 64.9066667,146.546667 61.04,141.16 C57.1733333,135.773333 58.3733333,135.826667 60.72,135.653333 C63.0666667,135.48 70.4266667,148.333333 75.76,156.6 C81.0933333,164.866667 85.8533333,160.6 82.4266667,154.88 C79,149.16 73.6133333,140.933333 68.8133333,135.92 C64.0133333,130.906667 67.8666667,126.586667 69.8533333,130.586667 C73.6133333,136.666667 86.8533333,158.906667 91.3333333,156.293333 C95.8133333,153.68 90.7066667,146.16 83.0933333,136.813333 C75.48,127.466667 75.6533333,124 77.3333333,124.306667 C79.0133333,124.613333 89.5466667,140.04 93.4666667,145.08 C97.3866667,150.12 102.8,145.906667 99.4533333,140.786667 C96.1066667,135.666667 74.56,110.293333 76.2933333,109.333333 Z" id="Path" fill="#F47E4C"></path>
                    <path d="M53.1866667,76.2933333 C54.1333333,78.04 59.8533333,88.48 61.9866667,86.0133333 C65.4,80.24 69.3333333,61.3333333 70.6666667,59.2666667 C72,57.2 80.3066667,54.16 79.84,52.68 C79.3733333,51.2 65.1733333,31.7733333 63.9466667,30.52 C59.3425434,34.3363041 53.7552515,36.7764118 47.8266667,37.56 C38.2533333,38.6666667 23.5733333,51.8933333 15.5066667,57.0933333 C7.44,62.2933333 2.73333333,66.2533333 4.84,69.6 C6.94666667,72.9466667 16,64.9066667 21.3333333,61.04 C26.6666667,57.1733333 26.6666667,58.3733333 26.84,60.72 C27.0133333,63.0666667 14.2,70.4266667 5.93333333,75.76 C-2.33333333,81.0933333 1.93333333,85.8533333 7.66666667,82.4266667 C13.4,79 21.6,73.5733333 26.6666667,68.7733333 C31.7333333,63.9733333 36,67.8266667 32,69.8133333 C25.8266667,73.5733333 3.58666667,86.8133333 6.2,91.2933333 C8.81333333,95.7733333 16.3333333,90.6666667 25.68,83.0533333 C35.0266667,75.44 38.5066667,75.6533333 38.2266667,77.36 C37.9466667,79.0666667 22.4933333,89.5733333 17.4533333,93.4933333 C12.4133333,97.4133333 16.6266667,102.826667 21.7466667,99.48 C26.8666667,96.1333333 52.24,74.56 53.1866667,76.2933333 Z" id="Path" fill="#BCDEF9"></path>
                    <path d="M154.88,80.16 C149.2,83.6266667 140.933333,88.96 135.92,93.76 C130.906667,98.56 126.586667,94.7066667 130.586667,92.72 C136.666667,88.96 158.906667,75.72 156.293333,71.24 C153.68,66.76 146.16,71.8666667 136.813333,79.48 C127.466667,87.0933333 124,86.88 124.306667,85.1733333 C124.613333,83.4666667 140.04,72.96 145.08,69.04 C150.12,65.12 145.906667,59.7066667 140.786667,63.0533333 C135.666667,66.4 110.293333,88 109.333333,86.24 C108.373333,84.48 102.666667,74.0533333 100.533333,76.52 C97.12,82.2933333 93.1466667,101.186667 91.92,103.266667 C90.6933333,105.346667 82.28,108.373333 82.7466667,109.853333 C83.2133333,111.333333 97.4533333,130.76 98.6666667,132 C103.27079,128.183696 108.858082,125.743588 114.786667,124.96 C124.293333,123.88 138.973333,110.626667 147.04,105.426667 C155.106667,100.226667 159.813333,96.2666667 157.706667,92.92 C155.6,89.5733333 146.546667,97.6133333 141.16,101.48 C135.773333,105.346667 135.826667,104.146667 135.653333,101.8 C135.48,99.4533333 148.333333,92.0933333 156.6,86.76 C164.866667,81.4266667 160.546667,76.68 154.88,80.16 Z" id="Path" fill="#C9F1D8"></path>
                </g>
                <polygon id="Path" fill="#67BAE3" points="175.906667 84.9066667 192.893333 84.9066667 199.013333 117.333333 208 84.9066667 224.933333 84.9066667 233.866667 117.333333 240 84.9066667 256.893333 84.9066667 244.133333 142.8 226.666667 142.8 216.506667 106.346667 206.386667 142.8 188.786667 142.8"></polygon>
                <path d="M259.106667,113.893333 C259.106667,104.435556 261.742222,97.0755556 267.013333,91.8133333 C272.284444,86.5511111 279.613333,83.9155556 289,83.9066667 C298.635556,83.9066667 306.062222,86.4933333 311.28,91.6666667 C316.497778,96.84 319.102222,104.088889 319.093333,113.413333 C319.093333,120.173333 317.96,125.733333 315.68,130.053333 C313.462851,134.32715 310.029581,137.848571 305.813333,140.173333 C300.845872,142.73342 295.305097,143.977455 289.72,143.786667 C284.149611,143.980247 278.607392,142.913735 273.506667,140.666667 C269.12533,138.489232 265.497897,135.047583 263.093333,130.786667 C260.271564,125.615718 258.894454,119.780273 259.106667,113.893333 L259.106667,113.893333 Z M277,113.893333 C277,119.751111 278.084444,123.951111 280.253333,126.493333 C282.566406,128.931767 285.775292,130.31934 289.13625,130.334445 C292.497208,130.349551 295.718436,128.990878 298.053333,126.573333 C300.16,124.075556 301.213333,119.586667 301.213333,113.106667 C301.213333,107.653333 300.106667,103.68 297.906667,101.106667 C295.649094,98.5677386 292.367411,97.1815951 288.973333,97.3333333 C285.612432,97.2482577 282.401843,98.7255221 280.28,101.333333 C278.093333,103.848889 277,108.057778 277,113.96 L277,113.893333 Z" id="Shape" fill="#67BAE3"></path>
                <path d="M328.973333,142.8 L328.973333,84.9066667 L358.786667,84.9066667 C363.059879,84.7505453 367.332705,85.2268014 371.466667,86.32 C374.355984,87.2505359 376.84618,89.1299293 378.533333,91.6533333 C381.863386,97.0183389 382.101848,103.746021 379.16,109.333333 C377.784308,111.664805 375.844957,113.613326 373.52,115 C371.55326,116.082001 369.430058,116.851212 367.226667,117.28 C368.874661,117.768501 370.445644,118.486664 371.893333,119.413333 C372.955734,120.321101 373.912841,121.345296 374.746667,122.466667 C375.700328,123.575181 376.540108,124.776781 377.253333,126.053333 L385.92,142.84 L365.706667,142.84 L356.146667,125.146667 C355.386219,123.450293 354.283111,121.929547 352.906667,120.68 C351.618101,119.79139 350.085113,119.325436 348.52,119.346667 L346.946667,119.346667 L346.946667,142.8 L328.973333,142.8 Z M346.946667,108.36 L354.48,108.36 C356.082073,108.236183 357.670305,107.972965 359.226667,107.573333 C360.385636,107.347763 361.417975,106.69601 362.12,105.746667 C363.850016,103.39431 363.576681,100.125687 361.48,98.0933333 C360.297778,97.0977778 358.075556,96.5955556 354.813333,96.5866667 L346.96,96.5866667 L346.946667,108.36 Z" id="Shape" fill="#67BAE3"></path>
                <polygon id="Path" fill="#67BAE3" points="391.64 84.9066667 409.533333 84.9066667 409.533333 128.533333 437.453333 128.533333 437.453333 142.8 391.64 142.8"></polygon>
                <path d="M445.826667,84.9066667 L472.4,84.9066667 C476.735475,84.7446536 481.058618,85.4659335 485.106667,87.0266667 C488.23899,88.3789613 490.987522,90.4861691 493.106667,93.16 C495.262766,95.9197308 496.820298,99.0983679 497.68,102.493333 C498.646149,106.152197 499.125835,109.922442 499.106667,113.706667 C499.106667,119.928889 498.4,124.724444 496.986667,128.093333 C495.690194,131.350333 493.686371,134.278648 491.12,136.666667 C488.871216,138.833253 486.123742,140.41305 483.12,141.266667 C479.64854,142.257014 476.062746,142.790401 472.453333,142.853333 L445.826667,142.853333 L445.826667,84.9066667 Z M463.72,98.0133333 L463.72,129.64 L468.106667,129.64 C471.84,129.64 474.506667,129.226667 476.106667,128.4 C477.809394,127.407932 479.111295,125.851311 479.786667,124 C480.675556,121.928889 481.12,118.577778 481.12,113.946667 C481.12,107.813333 480.12,103.617778 478.12,101.36 C476.12,99.1022222 472.804444,97.9688889 468.173333,97.96 L463.72,98.0133333 Z" id="Shape" fill="#67BAE3"></path>
                <path d="M210.253333,65.6533333 L193.586667,65.6533333 L191.266667,75.2133333 L176.28,75.2133333 L194.133333,17.3333333 L210.133333,17.3333333 L228,75.2133333 L212.64,75.2133333 L210.253333,65.6533333 Z M207.213333,53.1333333 L201.96,32.3333333 L196.773333,53.1333333 L207.213333,53.1333333 Z" id="Shape" fill="#67BAE3"></path>
                <path d="M263.12,51.52 L276,56.2533333 C275.324727,60.1471886 273.941908,63.8844159 271.92,67.28 C270.227372,70.0622214 267.843386,72.3589324 265,73.9466667 C261.736655,75.5648667 258.11985,76.339569 254.48,76.2 C250.099962,76.3995907 245.741119,75.4819395 241.813333,73.5333333 C238.542222,71.6222222 235.715556,68.3822222 233.333333,63.8133333 C230.946667,59.2 229.76,53.32 229.76,46.1333333 C229.76,36.5422222 231.853333,29.1822222 236.04,24.0533333 C240.226667,18.9244444 246.142222,16.3511111 253.786667,16.3333333 C259.777778,16.3333333 264.48,17.8088889 267.893333,20.76 C271.306667,23.7111111 273.853333,28.24 275.533333,34.3466667 L262.56,37.8533333 C262.268812,36.5037184 261.788516,35.20198 261.133333,33.9866667 C260.401749,32.7032589 259.367217,31.6183736 258.12,30.8266667 C256.919226,30.0844639 255.531504,29.7005274 254.12,29.72 C250.821048,29.7081412 247.827728,31.6496123 246.493333,34.6666667 C245.151111,37.0755556 244.48,40.8755556 244.48,46.0666667 C244.48,52.4844444 245.28,56.88 246.88,59.2533333 C248.327486,61.5590334 250.892542,62.9202907 253.613333,62.8266667 C256.098078,62.9745655 258.493133,61.8745405 260,59.8933333 C261.665723,57.3770729 262.73301,54.5127312 263.12,51.52 Z" id="Path" fill="#67BAE3"></path>
                <polygon id="Path" fill="#67BAE3" points="279.773333 17.3333333 324.413333 17.3333333 324.413333 31.6133333 309.44 31.6133333 309.44 75.2133333 294.773333 75.2133333 294.773333 31.6133333 279.773333 31.6133333"></polygon>
                <polygon id="Path" fill="#67BAE3" points="353.333333 17.3333333 389.64 17.3333333 389.64 29.7733333 368 29.7733333 368 39.8666667 386.413333 39.8666667 386.413333 51.56 368 51.56 368 75.2133333 353.333333 75.2133333"></polygon>
                <path d="M395.626667,46.3066667 C395.626667,36.8577778 397.791111,29.4977778 402.12,24.2266667 C406.448889,18.9555556 412.466667,16.3244444 420.173333,16.3333333 C428.075556,16.3333333 434.168889,18.92 438.453333,24.0933333 C442.737778,29.2666667 444.875556,36.5155556 444.866667,45.84 C445.058339,51.5182905 444.106128,57.1771407 442.066667,62.48 C440.4013,66.563505 437.58481,70.0748526 433.96,72.5866667 C430.032058,75.1104355 425.425701,76.3713675 420.76,76.2 C416.115467,76.3819701 411.508232,75.3038771 407.426667,73.08 C403.660341,70.7137911 400.684779,67.2786651 398.88,63.2133333 C396.53874,57.8938949 395.426733,52.1151045 395.626667,46.3066667 L395.626667,46.3066667 Z M410.293333,46.3866667 C410.293333,52.2266667 411.182222,56.4266667 412.96,58.9866667 C414.62063,61.3908089 417.350615,62.8325496 420.272487,62.8484871 C423.194359,62.8644245 425.939909,61.4525504 427.626667,59.0666667 C429.351111,56.56 430.213333,52.0711111 430.213333,45.6 C430.213333,40.1422222 429.324444,36.1422222 427.546667,33.6 C425.906633,31.165881 423.133843,29.7417442 420.2,29.8266667 C417.324239,29.7836005 414.630824,31.2311849 413.08,33.6533333 C411.24,36.2488889 410.32,40.4933333 410.32,46.3866667 L410.293333,46.3866667 Z" id="Shape" fill="#67BAE3"></path>
                <path d="M452.973333,75.2133333 L452.973333,17.3333333 L477.453333,17.3333333 C480.977353,17.1846062 484.499547,17.667779 487.853333,18.76 C490.351578,19.8037054 492.404223,21.6911943 493.653333,24.0933333 C495.197968,26.9560806 495.961351,30.1751664 495.866667,33.4266667 C495.933648,36.2876261 495.354858,39.1268847 494.173333,41.7333333 C493.125359,43.9808239 491.52993,45.929264 489.533333,47.4 C487.965447,48.4601775 486.223373,49.2364384 484.386667,49.6933333 C485.76455,50.1940521 487.05231,50.9144777 488.2,51.8266667 C489.092914,52.749515 489.880011,53.7691632 490.546667,54.8666667 C491.337671,56.0050836 492.029117,57.2095379 492.613333,58.4666667 L499.72,75.24 L483.133333,75.24 L475.28,57.5466667 C474.691433,55.9018623 473.785378,54.3887501 472.613333,53.0933333 C471.623861,52.2205398 470.34599,51.7454949 469.026667,51.76 L467.693333,51.76 L467.693333,75.2133333 L452.973333,75.2133333 Z M467.72,40.7733333 L473.92,40.7733333 C475.238402,40.6551097 476.539663,40.3912803 477.8,39.9866667 C478.806337,39.7263236 479.666129,39.0730739 480.186667,38.1733333 C480.809541,37.1648806 481.128926,35.9984299 481.106667,34.8133333 C481.213085,33.2417759 480.690231,31.6923993 479.653333,30.5066667 C478.68,29.5066667 476.853333,29.0133333 474.173333,29.0133333 L467.72,29.0133333 L467.72,40.7733333 Z" id="Shape" fill="#67BAE3"></path>
            </g>
        </g>
    </g>
</svg>